<?xml version="1.0" encoding="UTF-8" standalone="no"?>
<svg
   xmlns:dc="http://purl.org/dc/elements/1.1/"
   xmlns:cc="http://creativecommons.org/ns#"
   xmlns:rdf="http://www.w3.org/1999/02/22-rdf-syntax-ns#"
   xmlns:svg="http://www.w3.org/2000/svg"
   xmlns="http://www.w3.org/2000/svg"
   xmlns:sodipodi="http://sodipodi.sourceforge.net/DTD/sodipodi-0.dtd"
   xmlns:inkscape="http://www.inkscape.org/namespaces/inkscape"
   inkscape:version="1.0 (1.0+r73+1)"
   height="512"
   width="512"
   sodipodi:docname="favico.svg"
   xml:space="preserve"
   viewBox="0 0 512 512"
   y="0px"
   x="0px"
   id="Layer_1"
   version="1.1"><metadata
   id="metadata75"><rdf:RDF><cc:Work
       rdf:about=""><dc:format>image/svg+xml</dc:format><dc:type
         rdf:resource="http://purl.org/dc/dcmitype/StillImage" /><dc:title></dc:title></cc:Work></rdf:RDF></metadata><defs
   id="defs73" /><sodipodi:namedview
   fit-margin-bottom="0"
   fit-margin-right="0"
   fit-margin-left="0"
   fit-margin-top="0"
   inkscape:current-layer="Layer_1"
   inkscape:window-maximized="1"
   inkscape:window-y="0"
   inkscape:window-x="0"
   inkscape:cy="287.08816"
   inkscape:cx="266.07989"
   inkscape:zoom="0.5453629"
   showgrid="false"
   id="namedview71"
   inkscape:window-height="739"
   inkscape:window-width="1366"
   inkscape:pageshadow="2"
   inkscape:pageopacity="0"
   guidetolerance="10"
   gridtolerance="10"
   objecttolerance="10"
   borderopacity="1"
   bordercolor="#666666"
   pagecolor="#ffffff" />
<path
   id="path2"
   d="M 512,492.18065 C 512,502.91613 502.91613,512 492.18065,512 H 19.819355 C 9.083871,512 0,502.91613 0,492.18065 V 19.819355 C 0,9.083871 9.083871,0 19.819355,0 H 492.18065 C 502.91613,0 512,9.083871 512,19.819355 Z"
   style="fill:#8ea5a4;stroke-width:1.03226" />
<path
   id="path4"
   d="M 16.516129,82.580645 V 476.49032 c 0,10.73549 7.432258,18.99355 17.341936,18.99355 H 478.14194 c 9.90967,0 17.34193,-8.25806 17.34193,-18.99355 V 82.580645 Z"
   style="fill:#378ecb;fill-opacity:1;stroke-width:1.03226" />
<path
   id="path6"
   d="m 478.14194,495.48387 c 9.90967,0 17.34193,-9.08387 17.34193,-18.99355 V 82.580645 H 16.516129"
   style="fill:#378ecb;fill-opacity:1;stroke-width:1.03226" />
<rect
   id="rect8"
   height="24.774193"
   width="478.96774"
   style="fill:#3175aa;fill-opacity:1;stroke-width:1.03226"
   y="82.580643"
   x="16.516129" />
<path
   id="path10"
   d="m 407.94839,41.290323 c 0,9.909677 -8.25807,16.516129 -18.16774,16.516129 H 33.032258 c -9.909677,0 -8.258064,-6.606452 -8.258064,-16.516129 v 0 c 0,-9.909678 -1.651613,-16.516129 8.258064,-16.516129 H 389.78065 c 9.90967,0 18.16774,6.606451 18.16774,16.516129 z"
   style="fill:#fdffff;stroke-width:1.03226" />
<path
   id="path12"
   d="m 24.774194,42.116129 v 0 c 0,-9.909677 -1.651613,-17.341935 8.258064,-17.341935 H 389.78065 c 9.90967,0 18.16774,7.432258 18.16774,17.341935 v 0"
   style="fill:#e6efef;stroke-width:1.03226" />
<circle
   r="9.0838709"
   id="circle14"
   cy="42.941933"
   cx="440.15485"
   style="opacity:0.4;fill:#b1bcbc;stroke-width:1.03226;enable-background:new" />
<circle
   r="9.0838709"
   id="circle16"
   cy="38.812901"
   cx="440.15485"
   style="fill:#ffffff;stroke-width:1.03226" />
<path
   id="path18"
   d="m 433.54839,32.206452 c 3.30322,-3.303226 9.90967,-3.303226 13.2129,0 3.30323,3.303225 3.30323,9.909677 0,13.212903"
   style="fill:#e8efee;stroke-width:1.03226" />
<circle
   r="9.0838709"
   id="circle20"
   cy="42.941933"
   cx="477.31613"
   style="opacity:0.4;fill:#b1bcbc;stroke-width:1.03226;enable-background:new" />
<circle
   r="9.0838709"
   id="circle22"
   cy="38.812901"
   cx="477.31613"
   style="fill:#ffffff;stroke-width:1.03226" />
<path
   id="path24"
   d="m 470.70968,32.206452 c 3.30322,-3.303226 9.90967,-3.303226 13.2129,0 3.30323,3.303225 3.30323,9.909677 0,13.212903"
   style="fill:#e8efee;stroke-width:1.03226" />
<path
   id="path26"
   d="m 104.05161,33.032258 -0.8258,-0.825806 h -2.47742 c -0.825809,0 -0.825809,0 -0.825809,0.825806 l -1.651613,6.606452 v 0 0 l -2.47742,-6.606452 c -0.825806,0 -0.825806,0 -1.651613,0 h -2.477419 c -0.825806,0 -0.825806,0 -0.825806,0.825807 l -2.47742,7.432258 v 0 0 l -1.651613,-6.606452 c 0,-1.651613 0,-1.651613 -0.825806,-1.651613 h -2.477419 -0.825807 -0.825806 -2.47742 c -0.825806,0 -0.825806,0 -0.825806,0.825807 L 76.8,40.464516 v 0 0 l -2.477419,-6.606451 c 0,-0.825807 -0.825807,-0.825807 -1.651613,-0.825807 h -1.651613 c -0.825807,0 -0.825807,0 -1.651613,0.825807 l -1.651613,6.606451 v 0 0 L 65.23871,33.858065 c 0,-0.825807 0,-0.825807 -0.825807,-0.825807 h -2.477419 -0.825807 c 0,0 0,0 -0.825806,0 h -2.477419 c 0,0 -0.825807,0 -0.825807,0.825807 l -1.651613,6.606451 v 0 0 l -2.477419,-6.606451 c 0,-0.825807 -0.825807,-0.825807 -1.651613,-0.825807 h -1.651613 c -0.825806,0 -0.825806,0 -0.825806,0.825807 l -2.47742,6.606451 v 0 0 l -1.651613,-6.606451 c -0.825806,-0.825807 -0.825806,-0.825807 -1.651613,-0.825807 h -2.477419 c 0,0 -0.825806,0 -0.825806,0.825807 v 0.825806 l 4.129032,14.03871 c 0,0.825806 0.825806,0.825806 0.825806,0.825806 h 2.47742 c 0.825806,0 0.825806,0 0.825806,-0.825806 l 2.47742,-7.432258 c 0,0 0,0 0,-0.825807 0,0 0,0 0,0.825807 l 2.477419,6.606451 c 0,0.825807 0.825806,0.825807 0.825806,0.825807 h 2.47742 c 0.825806,0 0.825806,0 0.825806,-0.825807 l 4.129032,-12.387097 3.303226,12.387097 c 0,0.825807 0.825807,0.825807 0.825807,0.825807 h 2.477419 c 0.825806,0 0.825806,0 0.825806,-0.825807 l 3.303226,-6.606451 c 0,0 0,0 0,-0.825807 0,0 0,0 0,0.825807 l 2.47742,6.606451 c 0,0.825807 0.825806,0.825807 0.825806,0.825807 h 2.477419 c 0.825807,0 0.825807,0 0.825807,-0.825807 l 4.129032,-12.387097 3.303226,12.387097 c 0,0.825807 0.825806,0.825807 0.825806,0.825807 h 2.47742 c 0.825806,0 0.825806,0 0.825806,-0.825807 l 3.303226,-6.606451 c 0,0 0,0 0,-0.825807 0,0 0,0 0,0.825807 l 2.477419,6.606451 c 0,0.825807 0.825807,0.825807 0.825807,0.825807 h 2.477419 c 0.825807,0 0.825807,0 0.825807,-0.825807 l 4.129029,-14.038709 c 0.82581,0 0.82581,-0.825807 0,-0.825807 z"
   style="fill:#8ea5a4;stroke-width:1.03226" />


<g
   transform="scale(1.0322581)"
   id="g40">
</g>
<g
   transform="scale(1.0322581)"
   id="g42">
</g>
<g
   transform="scale(1.0322581)"
   id="g44">
</g>
<g
   transform="scale(1.0322581)"
   id="g46">
</g>
<g
   transform="scale(1.0322581)"
   id="g48">
</g>
<g
   transform="scale(1.0322581)"
   id="g50">
</g>
<g
   transform="scale(1.0322581)"
   id="g52">
</g>
<g
   transform="scale(1.0322581)"
   id="g54">
</g>
<g
   transform="scale(1.0322581)"
   id="g56">
</g>
<g
   transform="scale(1.0322581)"
   id="g58">
</g>
<g
   transform="scale(1.0322581)"
   id="g60">
</g>
<g
   transform="scale(1.0322581)"
   id="g62">
</g>
<g
   transform="scale(1.0322581)"
   id="g64">
</g>
<g
   transform="scale(1.0322581)"
   id="g66">
</g>
<g
   transform="scale(1.0322581)"
   id="g68">
</g>
<g
   transform="matrix(1.0322581,0,0,1.0322581,-611.83185,-113.87579)"
   id="g270"><g
     transform="translate(584.87621,136.40299)"
     id="g1122"><g
       id="g87"
       transform="translate(-1.6749996,-2.3072165)">
	<path
   id="path83"
   d="m 390.803,303.767 c 0,7.321 -5.933,13.255 -13.255,13.255 H 129.337 c -7.321,0 -13.255,-5.934 -13.255,-13.255 v -99.414 c 0,-7.321 5.934,-13.255 13.255,-13.255 h 248.211 c 7.322,0 13.255,5.934 13.255,13.255 z"
   style="fill:#ebf25f" />
	<path
   id="path85"
   d="m 303.149,116.698 c 7.321,0 13.255,5.935 13.255,13.255 v 248.212 c 0,7.32 -5.934,13.255 -13.255,13.255 h -99.415 c -7.32,0 -13.255,-5.935 -13.255,-13.255 V 129.953 c 0,-7.32 5.935,-13.255 13.255,-13.255 z"
   style="fill:#ebf25f" />
</g><path
       id="path89"
       d="M 343.449,145.44178 H 160.085 c -9.151,0 -16.569,7.419 -16.569,16.569 v 183.364 c 0,9.151 7.419,16.569 16.569,16.569 h 183.364 c 9.151,0 16.569,-7.419 16.569,-16.569 v -30.662 -125.924 -26.778 c 0,-9.15 -7.418,-16.569 -16.569,-16.569 z m -41.975,162.377 H 200.956 v -106.042 h 100.519 v 106.042 z"
       style="fill:#547475" /><path
       id="path91"
       d="m 326.88,315.55078 c 0,7.32 -5.934,13.255 -13.255,13.255 H 189.909 c -7.321,0 -13.255,-5.935 -13.255,-13.255 v -123.715 c 0,-7.321 5.934,-13.255 13.255,-13.255 h 123.716 c 7.321,0 13.255,5.934 13.255,13.255 z"
       style="fill:#384949" /><path
       id="path93"
       d="m 194.329,315.55078 v -123.715 c 0,-7.321 5.935,-13.255 13.255,-13.255 h -17.675 c -7.321,0 -13.255,5.934 -13.255,13.255 v 123.715 c 0,7.32 5.934,13.255 13.255,13.255 h 17.675 c -7.32,10e-4 -13.255,-5.935 -13.255,-13.255 z"
       style="opacity:0.15;fill:#231f20;enable-background:new" /><g
       id="g135"
       transform="translate(-1.6749996,-2.3072165)">
	<path
   id="path103"
   d="m 209.876,124.981 c -4.575,0 -8.285,-3.709 -8.285,-8.285 v -36.75 c 0,-4.575 3.709,-8.285 8.285,-8.285 4.575,0 8.285,3.709 8.285,8.285 v 36.751 c -0.001,4.576 -3.711,8.284 -8.285,8.284 z"
   style="fill:#ffffff;fill-opacity:1" />
	<path
   id="path105"
   d="m 239.332,124.981 c -4.576,0 -8.285,-3.709 -8.285,-8.285 v -36.75 c 0,-4.575 3.708,-8.285 8.285,-8.285 4.576,0 8.285,3.709 8.285,8.285 v 36.751 c 0,4.576 -3.71,8.284 -8.285,8.284 z"
   style="fill:#ffffff;fill-opacity:1" />
	<path
   id="path107"
   d="m 268.787,124.981 c -4.576,0 -8.285,-3.709 -8.285,-8.285 v -36.75 c 0,-4.575 3.708,-8.285 8.285,-8.285 4.576,0 8.285,3.709 8.285,8.285 v 36.751 c 0,4.576 -3.709,8.284 -8.285,8.284 z"
   style="fill:#ffffff;fill-opacity:1" />
	<path
   id="path109"
   d="m 298.244,124.981 c -4.575,0 -8.285,-3.709 -8.285,-8.285 v -36.75 c 0,-4.575 3.709,-8.285 8.285,-8.285 4.576,0 8.285,3.709 8.285,8.285 v 36.751 c -10e-4,4.576 -3.711,8.284 -8.285,8.284 z"
   style="fill:#ffffff;fill-opacity:1" />
	<path
   id="path111"
   d="m 209.876,438.397 c -4.575,0 -8.285,-3.709 -8.285,-8.285 v -36.751 c 0,-4.575 3.709,-8.285 8.285,-8.285 4.575,0 8.285,3.709 8.285,8.285 v 36.751 c -0.001,4.576 -3.711,8.285 -8.285,8.285 z"
   style="fill:#ffffff;fill-opacity:1" />
	<path
   id="path113"
   d="m 239.332,438.397 c -4.576,0 -8.285,-3.709 -8.285,-8.285 v -36.751 c 0,-4.575 3.708,-8.285 8.285,-8.285 4.576,0 8.285,3.709 8.285,8.285 v 36.751 c 0,4.576 -3.71,8.285 -8.285,8.285 z"
   style="fill:#ffffff;fill-opacity:1" />
	<path
   id="path115"
   d="m 268.787,438.397 c -4.576,0 -8.285,-3.709 -8.285,-8.285 v -36.751 c 0,-4.575 3.708,-8.285 8.285,-8.285 4.576,0 8.285,3.709 8.285,8.285 v 36.751 c 0,4.576 -3.709,8.285 -8.285,8.285 z"
   style="fill:#ffffff;fill-opacity:1" />
	<path
   id="path117"
   d="m 298.244,438.397 c -4.575,0 -8.285,-3.709 -8.285,-8.285 v -36.751 c 0,-4.575 3.709,-8.285 8.285,-8.285 4.576,0 8.285,3.709 8.285,8.285 v 36.751 c -10e-4,4.576 -3.711,8.285 -8.285,8.285 z"
   style="fill:#ffffff;fill-opacity:1" />
	<path
   id="path119"
   d="m 115.727,307.498 h -36.75 c -4.576,0 -8.285,-3.709 -8.285,-8.285 0,-4.575 3.708,-8.285 8.285,-8.285 h 36.75 c 4.575,0 8.285,3.709 8.285,8.285 0,4.576 -3.71,8.285 -8.285,8.285 z"
   style="fill:#ffffff;fill-opacity:1" />
	<path
   id="path121"
   d="m 115.727,278.042 h -36.75 c -4.576,0 -8.285,-3.709 -8.285,-8.285 0,-4.576 3.708,-8.285 8.285,-8.285 h 36.75 c 4.575,0 8.285,3.709 8.285,8.285 0,4.576 -3.71,8.285 -8.285,8.285 z"
   style="fill:#ffffff;fill-opacity:1" />
	<path
   id="path123"
   d="m 115.727,248.586 h -36.75 c -4.576,0 -8.285,-3.709 -8.285,-8.285 0,-4.575 3.708,-8.285 8.285,-8.285 h 36.75 c 4.575,0 8.285,3.709 8.285,8.285 0,4.576 -3.71,8.285 -8.285,8.285 z"
   style="fill:#ffffff;fill-opacity:1" />
	<path
   id="path125"
   d="m 115.727,219.13 h -36.75 c -4.576,0 -8.285,-3.709 -8.285,-8.285 0,-4.575 3.708,-8.285 8.285,-8.285 h 36.75 c 4.575,0 8.285,3.709 8.285,8.285 0,4.576 -3.71,8.285 -8.285,8.285 z"
   style="fill:#ffffff;fill-opacity:1" />
	<path
   id="path127"
   d="m 429.143,307.498 h -36.75 c -4.575,0 -8.285,-3.709 -8.285,-8.285 0,-4.575 3.709,-8.285 8.285,-8.285 h 36.75 c 4.576,0 8.285,3.709 8.285,8.285 -10e-4,4.576 -3.71,8.285 -8.285,8.285 z"
   style="font-variation-settings:normal;opacity:1;vector-effect:none;fill:#ffffff;fill-opacity:1;stroke-width:1;stroke-linecap:butt;stroke-linejoin:miter;stroke-miterlimit:4;stroke-dasharray:none;stroke-dashoffset:0;stroke-opacity:1;stop-color:#000000;stop-opacity:1" />
	<path
   id="path129"
   d="m 429.143,278.042 h -36.75 c -4.575,0 -8.285,-3.709 -8.285,-8.285 0,-4.576 3.709,-8.285 8.285,-8.285 h 36.75 c 4.576,0 8.285,3.709 8.285,8.285 0,4.576 -3.71,8.285 -8.285,8.285 z"
   style="font-variation-settings:normal;opacity:1;vector-effect:none;fill:#ffffff;fill-opacity:1;stroke-width:1;stroke-linecap:butt;stroke-linejoin:miter;stroke-miterlimit:4;stroke-dasharray:none;stroke-dashoffset:0;stroke-opacity:1;stop-color:#000000;stop-opacity:1" />
	<path
   id="path131"
   d="m 429.143,248.586 h -36.75 c -4.575,0 -8.285,-3.709 -8.285,-8.285 0,-4.575 3.709,-8.285 8.285,-8.285 h 36.75 c 4.576,0 8.285,3.709 8.285,8.285 -10e-4,4.576 -3.71,8.285 -8.285,8.285 z"
   style="font-variation-settings:normal;opacity:1;vector-effect:none;fill:#ffffff;fill-opacity:1;stroke-width:1;stroke-linecap:butt;stroke-linejoin:miter;stroke-miterlimit:4;stroke-dasharray:none;stroke-dashoffset:0;stroke-opacity:1;stop-color:#000000;stop-opacity:1" />
	<path
   id="path133"
   d="m 429.143,219.13 h -36.75 c -4.575,0 -8.285,-3.709 -8.285,-8.285 0,-4.575 3.709,-8.285 8.285,-8.285 h 36.75 c 4.576,0 8.285,3.709 8.285,8.285 -10e-4,4.576 -3.71,8.285 -8.285,8.285 z"
   style="fill:#ffffff;fill-opacity:1" />
</g><g
       id="g145"
       transform="translate(-1.6749996,-2.3072165)">
	
		
	
		
	
		
	
		
<ellipse
   style="fill:#231f20;fill-opacity:1;stroke:none;stroke-width:3.77953"
   id="path272"
   cx="197.98564"
   cy="200.28397"
   rx="7.6887364"
   ry="8.1074104" /></g></g><g
     id="g171">
</g><g
     id="g173">
</g><g
     id="g175">
</g><g
     id="g177">
</g><g
     id="g179">
</g><g
     id="g181">
</g><g
     id="g183">
</g><g
     id="g185">
</g><g
     id="g187">
</g><g
     id="g189">
</g><g
     id="g191">
</g><g
     id="g193">
</g><g
     id="g195">
</g><g
     id="g197">
</g><g
     id="g199">
</g></g></svg>
